<?xml version="1.0" encoding="UTF-8"?>
<svg width="374px" height="329px" viewBox="0 0 374 329" version="1.1" xmlns="http://www.w3.org/2000/svg" xmlns:xlink="http://www.w3.org/1999/xlink">
    <!-- Generator: Sketch 52.6 (67491) - http://www.bohemiancoding.com/sketch -->
    <title>Group 8</title>
    <desc>Created with Sketch.</desc>
    <defs>
        <polygon id="path-1" points="0.852765628 0.382561063 190.832615 0.382561063 190.832615 170.244565 0.852765628 170.244565"></polygon>
        <polygon id="path-3" points="0 0.109314206 177.312357 0.109314206 177.312357 170.149004 0 170.149004"></polygon>
        <polygon id="path-5" points="0 0.0991805685 177.312357 0.0991805685 177.312357 19.5935133 0 19.5935133"></polygon>
        <polygon id="path-7" points="0.160386889 0.436990381 218.725408 0.436990381 218.725408 194.366887 0.160386889 194.366887"></polygon>
        <polygon id="path-9" points="0.62625427 0.409571977 126.234377 0.409571977 126.234377 124.072869 0.62625427 124.072869"></polygon>
        <polygon id="path-11" points="0 0.447642086 125.286211 0.447642086 125.286211 123.459426 0 123.459426"></polygon>
    </defs>
    <g id="Page-1" stroke="none" stroke-width="1" fill="none" fill-rule="evenodd">
        <g id="Artboard" transform="translate(-485.000000, -174.000000)">
            <g id="Group-8" transform="translate(477.000000, 127.000000)">
                <g id="Group-20" transform="translate(270.456422, 259.998097) rotate(5.000000) translate(-270.456422, -259.998097) translate(172.956422, 171.998097)">
                    <g id="Group-3" opacity="0.0356026786" transform="translate(3.804878, 4.755435)">
                        <mask id="mask-2" fill="white">
                            <use xlink:href="#path-1"></use>
                        </mask>
                        <g id="Clip-2"></g>
                        <path d="M180.705041,0.382561063 L10.9783759,0.382561063 C5.40124159,0.382561063 0.852765628,5.73254545 0.852765628,12.2566303 L0.852765628,20.2268155 L0.852765628,158.369518 C0.852765628,164.893602 5.40124159,170.245544 10.9783759,170.245544 L180.705041,170.245544 C186.270397,170.245544 190.832615,164.893602 190.832615,158.369518 L190.832615,20.2268155 L190.832615,12.2566303 C190.832615,5.73254545 186.270397,0.382561063 180.705041,0.382561063" id="Fill-1" fill="#231F20" mask="url(#mask-2)"></path>
                    </g>
                    <g id="Group-6">
                        <mask id="mask-4" fill="white">
                            <use xlink:href="#path-3"></use>
                        </mask>
                        <g id="Clip-5"></g>
                        <path d="M177.312357,11.9940509 L177.312357,158.262308 C177.312357,164.79529 173.053058,170.149004 167.85941,170.149004 L9.45216585,170.149004 C4.24678955,170.149004 -0.000781881533,164.79529 -0.000781881533,158.262308 L-0.000781881533,11.9940509 C-0.000781881533,5.46302862 4.24678955,0.109314206 9.45216585,0.109314206 L167.85941,0.109314206 C173.053058,0.109314206 177.312357,5.46302862 177.312357,11.9940509" id="Fill-4" fill="#F1F2F2" mask="url(#mask-4)"></path>
                    </g>
                    <g id="Group-9">
                        <mask id="mask-6" fill="white">
                            <use xlink:href="#path-5"></use>
                        </mask>
                        <g id="Clip-8"></g>
                        <path d="M177.312357,11.7630974 L177.312357,19.5935133 L-0.000781881533,19.5935133 L-0.000781881533,11.7630974 C-0.000781881533,5.35342231 4.24678955,0.0991805685 9.45216585,0.0991805685 L167.85941,0.0991805685 C173.053058,0.0991805685 177.312357,5.35342231 177.312357,11.7630974" id="Fill-7" fill="#86939F" mask="url(#mask-6)"></path>
                    </g>
                    <path d="M18.0731707,9.98641304 C18.0731707,12.3497072 16.1563064,14.2663043 13.7926829,14.2663043 C11.4290594,14.2663043 9.51219512,12.3497072 9.51219512,9.98641304 C9.51219512,7.62311892 11.4290594,5.70652174 13.7926829,5.70652174 C16.1563064,5.70652174 18.0731707,7.62311892 18.0731707,9.98641304" id="Fill-10" fill="#ED5F55"></path>
                    <path d="M32.3414634,9.98641304 C32.3414634,12.3497072 30.4250265,14.2663043 28.06193,14.2663043 C25.6969247,14.2663043 23.7804878,12.3497072 23.7804878,9.98641304 C23.7804878,7.62311892 25.6969247,5.70652174 28.06193,5.70652174 C30.4250265,5.70652174 32.3414634,7.62311892 32.3414634,9.98641304" id="Fill-12" fill="#FCCE54"></path>
                    <path d="M45.6585366,9.98641304 C45.6585366,12.3497072 43.7416723,14.2663043 41.3780488,14.2663043 C39.012516,14.2663043 37.097561,12.3497072 37.097561,9.98641304 C37.097561,7.62311892 39.012516,5.70652174 41.3780488,5.70652174 C43.7416723,5.70652174 45.6585366,7.62311892 45.6585366,9.98641304" id="Fill-14" fill="#43CB6F"></path>
                    <path d="M109.336994,136.802698 L91.3734417,146.467391 L73.9204407,136.865583 C61.5749167,130.073964 53.9519925,117.420251 53.9519925,103.711243 L51.3658537,49.0363545 L91.6954818,42.798913 L132.219512,49.0363545 L129.633373,103.467562 C129.633373,117.306272 121.867102,130.058243 109.336994,136.802698" id="Fill-16" fill="#ED5F55"></path>
                    <polygon id="Fill-18" fill="#F2F2F2" points="120.804878 68.0329928 112.415034 59.9184783 91.7926829 79.8629875 71.1683806 59.9184783 62.7804878 68.0329928 83.4028385 87.9775021 62.7804878 107.920053 71.1683806 116.032609 91.7926829 96.0880994 112.415034 116.032609 120.804878 107.920053 100.182527 87.9775021"></polygon>
                </g>
                <g id="Group-5" transform="translate(191.625219, 212.883586) rotate(-9.000000) translate(-191.625219, -212.883586) translate(27.625219, 23.383586)">
                    <path d="M25.2769535,8.01604212 L31.7929956,8.01604212 C32.6214228,8.01604212 33.2929956,8.687615 33.2929956,9.51604212 L33.2929956,12.3399788 C33.2929956,13.1684059 32.6214228,13.8399788 31.7929956,13.8399788 L25.2769535,13.8399788 L25.2769535,20.3560209 C25.2769535,21.1844481 24.6053806,21.8560209 23.7769535,21.8560209 L20.9530168,21.8560209 C20.1245897,21.8560209 19.4530168,21.1844481 19.4530168,20.3560209 L19.4530168,13.8399788 L12.9369747,13.8399788 C12.1085476,13.8399788 11.4369747,13.1684059 11.4369747,12.3399788 L11.4369747,9.51604212 C11.4369747,8.687615 12.1085476,8.01604212 12.9369747,8.01604212 L19.4530168,8.01604212 L19.4530168,1.5 C19.4530168,0.671572875 20.1245897,1.52179594e-16 20.9530168,0 L23.7769535,0 C24.6053806,-1.52179594e-16 25.2769535,0.671572875 25.2769535,1.5 L25.2769535,8.01604212 Z" id="Combined-Shape" fill="#E6E7E8" opacity="0.147712054"></path>
                    <path d="M11.2724575,43.8864554 L15.6484417,43.8864554 C16.4768689,43.8864554 17.1484417,44.5580283 17.1484417,45.3864554 L17.1484417,46.7889372 C17.1484417,47.6173644 16.4768689,48.2889372 15.6484417,48.2889372 L11.2724575,48.2889372 L11.2724575,52.6649215 C11.2724575,53.4933486 10.6008846,54.1649215 9.77245751,54.1649215 L8.36997572,54.1649215 C7.5415486,54.1649215 6.86997572,53.4933486 6.86997572,52.6649215 L6.86997572,48.2889372 L2.49399149,48.2889372 C1.66556436,48.2889372 0.993991486,47.6173644 0.993991486,46.7889372 L0.993991486,45.3864554 C0.993991486,44.5580283 1.66556436,43.8864554 2.49399149,43.8864554 L6.86997572,43.8864554 L6.86997572,39.5104712 C6.86997572,38.6820441 7.5415486,38.0104712 8.36997572,38.0104712 L9.77245751,38.0104712 C10.6008846,38.0104712 11.2724575,38.6820441 11.2724575,39.5104712 L11.2724575,43.8864554 Z" id="Combined-Shape" fill="#E6E7E8" opacity="0.147712054"></path>
                    <path d="M58.8041543,17.2244667 L61.4193181,17.2244667 C62.1404021,17.2244667 62.7249561,17.8090208 62.7249561,18.5301047 C62.7249561,19.2511887 62.1404021,19.8357427 61.4193181,19.8357427 L58.8041543,19.8357427 L58.8041543,22.4509065 C58.8041543,23.1719905 58.2196003,23.7565445 57.4985163,23.7565445 C56.7774324,23.7565445 56.1928783,23.1719905 56.1928783,22.4509065 L56.1928783,19.8357427 L53.5777145,19.8357427 C52.8566306,19.8357427 52.2720765,19.2511887 52.2720765,18.5301047 C52.2720765,17.8090208 52.8566306,17.2244667 53.5777145,17.2244667 L56.1928783,17.2244667 L56.1928783,14.6093029 C56.1928783,13.888219 56.7774324,13.3036649 57.4985163,13.3036649 C58.2196003,13.3036649 58.8041543,13.888219 58.8041543,14.6093029 L58.8041543,17.2244667 Z" id="Combined-Shape" fill="#E6E7E8" opacity="0.147712054"></path>
                    <path d="M321.43205,367.404259 L326.205475,367.404259 C327.033902,367.404259 327.705475,368.075832 327.705475,368.904259 L327.705475,370.462123 C327.705475,371.29055 327.033902,371.962123 326.205475,371.962123 L321.43205,371.962123 L321.43205,376.735547 C321.43205,377.563974 320.760477,378.235547 319.93205,378.235547 L318.374187,378.235547 C317.54576,378.235547 316.874187,377.563974 316.874187,376.735547 L316.874187,371.962123 L312.100762,371.962123 C311.272335,371.962123 310.600762,371.29055 310.600762,370.462123 L310.600762,368.904259 C310.600762,368.075832 311.272335,367.404259 312.100762,367.404259 L316.874187,367.404259 L316.874187,362.630835 C316.874187,361.802408 317.54576,361.130835 318.374187,361.130835 L319.93205,361.130835 C320.760477,361.130835 321.43205,361.802408 321.43205,362.630835 L321.43205,367.404259 Z" id="Combined-Shape" fill="#E6E7E8" opacity="0.159654018"></path>
                    <path d="M295.198438,366.099366 L298.666969,366.099366 C299.495396,366.099366 300.166969,366.770938 300.166969,367.599366 L300.166969,367.965969 C300.166969,368.794396 299.495396,369.465969 298.666969,369.465969 L295.198438,369.465969 L295.198438,372.9345 C295.198438,373.762927 294.526865,374.4345 293.698438,374.4345 L293.331834,374.4345 C292.503407,374.4345 291.831834,373.762927 291.831834,372.9345 L291.831834,369.465969 L288.363304,369.465969 C287.534877,369.465969 286.863304,368.794396 286.863304,367.965969 L286.863304,367.599366 C286.863304,366.770938 287.534877,366.099366 288.363304,366.099366 L291.831834,366.099366 L291.831834,362.630835 C291.831834,361.802408 292.503407,361.130835 293.331834,361.130835 L293.698438,361.130835 C294.526865,361.130835 295.198438,361.802408 295.198438,362.630835 L295.198438,366.099366 Z" id="Combined-Shape" fill="#E6E7E8" opacity="0.159654018"></path>
                    <path d="M324.494365,340.582219 L326.634044,340.582219 C327.224022,340.582219 327.702294,341.060491 327.702294,341.650468 C327.702294,342.240446 327.224022,342.718718 326.634044,342.718718 L324.494365,342.718718 L324.494365,344.858397 C324.494365,345.448375 324.016093,345.926646 323.426116,345.926646 C322.836138,345.926646 322.357866,345.448375 322.357866,344.858397 L322.357866,342.718718 L320.218187,342.718718 C319.628209,342.718718 319.149938,342.240446 319.149938,341.650468 C319.149938,341.060491 319.628209,340.582219 320.218187,340.582219 L322.357866,340.582219 L322.357866,338.44254 C322.357866,337.852562 322.836138,337.37429 323.426116,337.37429 C324.016093,337.37429 324.494365,337.852562 324.494365,338.44254 L324.494365,340.582219 Z" id="Combined-Shape" fill="#E6E7E8" opacity="0.159654018"></path>
                    <g id="Group-14" transform="translate(31.385757, 38.010471)">
                        <g id="Group-3" opacity="0.179073661" transform="translate(0.946086, 4.908255)">
                            <mask id="mask-8" fill="white">
                                <use xlink:href="#path-7"></use>
                            </mask>
                            <g id="Clip-2"></g>
                            <path d="M207.074171,0.436990381 L11.8098213,0.436990381 C5.39249264,0.436990381 0.160386889,6.54502567 0.160386889,13.9935223 L0.160386889,23.0930203 L0.160386889,180.809462 C0.160386889,188.257958 5.39249264,194.368228 11.8098213,194.368228 L207.074171,194.368228 C213.47798,194.368228 218.725859,188.257958 218.725859,180.809462 L218.725859,23.0930203 L218.725859,13.9935223 C218.725859,6.54502567 213.47798,0.436990381 207.074171,0.436990381" id="Fill-1" fill="#231F20" opacity="0.139174107" mask="url(#mask-8)"></path>
                        </g>
                        <path d="M210.675166,13.4478365 L210.675166,178.953532 C210.675166,186.345742 205.730279,192.403586 199.700038,192.403586 L15.7619358,192.403586 C9.71818449,192.403586 4.78905948,186.345742 4.78905948,178.953532 L4.78905948,13.4478365 C4.78905948,6.05784361 9.71818449,0 15.7619358,0 L199.700038,0 C205.730279,0 210.675166,6.05784361 210.675166,13.4478365" id="Fill-4" fill="#F1F2F2"></path>
                        <path d="M210.675166,13.5089304 L210.675166,22.5779718 L4.78905948,22.5779718 L4.78905948,13.5089304 C4.78905948,6.08536458 9.71818449,0 15.7619358,0 L199.700038,0 C205.730279,0 210.675166,6.08536458 210.675166,13.5089304" id="Fill-6" fill="#86939F"></path>
                    </g>
                    <g id="Group-9" transform="translate(76.014837, 80.772251)">
                        <g id="Group-3" transform="translate(2.969323, 4.884761)">
                            <mask id="mask-10" fill="white">
                                <use xlink:href="#path-9"></use>
                            </mask>
                            <g id="Clip-2"></g>
                            <path d="M63.4303825,124.072869 C28.7996949,124.072869 0.62625427,96.3350183 0.62625427,62.2412202 C0.62625427,28.1467657 28.7996949,0.409571977 63.4303825,0.409571977 C98.0604032,0.409571977 126.234511,28.1467657 126.234511,62.2412202 C126.234511,96.3350183 98.0604032,124.072869 63.4303825,124.072869" id="Fill-1" fill="#D1D3D4" mask="url(#mask-10)"></path>
                        </g>
                        <g id="Group-6">
                            <mask id="mask-12" fill="white">
                                <use xlink:href="#path-11"></use>
                            </mask>
                            <g id="Clip-5"></g>
                            <path d="M62.6430388,123.459426 C28.1011038,123.459426 -0.00013301731,95.8675646 -0.00013301731,61.9532076 C-0.00013301731,28.0388506 28.1011038,0.447642086 62.6430388,0.447642086 C97.1849738,0.447642086 125.286211,28.0388506 125.286211,61.9532076 C125.286211,95.8675646 97.1849738,123.459426 62.6430388,123.459426" id="Fill-4" fill="#ED5F55" mask="url(#mask-12)"></path>
                        </g>
                        <path d="M86.9309408,47.8326071 C84.1043877,47.8326071 81.812856,50.1125419 81.812856,52.9247904 L81.812856,65.9312752 L81.812856,67.0084045 C81.812856,67.5038709 81.4087792,67.9052447 80.9107927,67.9052447 C80.4134675,67.9052447 80.0093907,67.5038709 80.0093907,67.0084045 L80.0093907,65.9312752 L80.0093907,31.2117842 C80.0093907,28.3988777 77.717859,26.118943 74.8913058,26.118943 C72.0647527,26.118943 69.7725596,28.3988777 69.7725596,31.2117842 L69.7725596,65.9312752 L69.7725596,66.2819838 C69.7725596,66.7774501 69.3684829,67.1788239 68.8704963,67.1788239 C68.3725098,67.1788239 67.9690944,66.7774501 67.9690944,66.2819838 L67.9690944,65.9312752 L67.9690944,24.631886 C67.9690944,21.8189795 65.6775627,19.5390447 62.8510095,19.5390447 C60.023795,19.5390447 57.7329246,21.8189795 57.7329246,24.631886 L57.7329246,65.9312752 L57.7329246,66.3504147 C57.7329246,66.845881 57.3288479,67.2472548 56.8308613,67.2472548 C56.3328748,67.2472548 55.9294594,66.845881 55.9294594,66.3504147 L55.9294594,65.9312752 L55.9294594,31.869774 C55.9294594,29.0568675 53.6379277,26.7769328 50.8107132,26.7769328 C47.98416,26.7769328 45.6926283,29.0568675 45.6926283,31.869774 L45.6926283,65.9312752 L45.6926283,67.0084045 C45.6926283,67.5038709 45.2892129,67.9052447 44.7912264,67.9052447 C44.2932398,67.9052447 43.8891631,67.5038709 43.8891631,67.0084045 L43.8891631,65.9312752 L43.8891631,41.7396214 C43.8891631,38.9267149 41.5976313,36.6467801 38.7710782,36.6467801 C35.9438637,36.6467801 33.652332,38.9267149 33.652332,41.7396214 L33.652332,65.9312752 L33.652332,77.4362272 C33.652332,93.4806511 46.7249749,106.487794 62.8510095,106.487794 C78.9770441,106.487794 92.0490257,93.4806511 92.0490257,77.4362272 L92.0490257,65.9312752 L92.0490257,52.9247904 C92.0490257,50.1125419 89.757494,47.8326071 86.9309408,47.8326071" id="Fill-7" fill="#FFFFFF"></path>
                    </g>
                </g>
            </g>
        </g>
    </g>
</svg>